<?xml version="1.0" encoding="UTF-8"?>
<svg width="134px" height="26px" viewBox="0 0 134 26" version="1.1" xmlns="http://www.w3.org/2000/svg"
     xmlns:xlink="http://www.w3.org/1999/xlink">
    <title>Veera</title>
    <desc>Created with La-StudioWeb.Com</desc>
    <g stroke="none" stroke-width="1" fill="#ffffff" fill-rule="evenodd">
        <path d="M6.876,0.548 L13.104,19.7 L19.332,0.548 L25.92,0.548 L17.064,26 L9.108,26 L0.288,0.548 L6.876,0.548 Z M39.452,5.444 L39.452,10.772 L48.056,10.772 L48.056,15.416 L39.452,15.416 L39.452,21.068 L49.136,21.068 L49.136,26 L33.296,26 L33.296,0.548 L49.136,0.548 L49.136,5.444 L39.452,5.444 Z M63.784,5.444 L63.784,10.772 L72.388,10.772 L72.388,15.416 L63.784,15.416 L63.784,21.068 L73.468,21.068 L73.468,26 L57.628,26 L57.628,0.548 L73.468,0.548 L73.468,5.444 L63.784,5.444 Z M95.028,26 L89.52,16.388 L88.116,16.388 L88.116,26 L81.96,26 L81.96,0.548 L92.472,0.548 C94.4880101,0.548 96.191993,0.89599652 97.584,1.592 C98.976007,2.28800348 100.019997,3.24199394 100.716,4.454 C101.412003,5.66600606 101.76,7.0519922 101.76,8.612 C101.76,10.4600092 101.250005,12.0319935 100.23,13.328 C99.2099949,14.6240065 97.7280097,15.5119976 95.784,15.992 L101.832,26 L95.028,26 Z M88.116,12.176 L91.932,12.176 C93.1560061,12.176 94.0559971,11.9060027 94.632,11.366 C95.2080029,10.8259973 95.496,10.0280053 95.496,8.972 C95.496,7.96399496 95.2020029,7.17200288 94.614,6.596 C94.0259971,6.01999712 93.132006,5.732 91.932,5.732 L88.116,5.732 L88.116,12.176 Z M125.624,21.356 L116.084,21.356 L114.5,26 L108.02,26 L117.344,0.728 L124.436,0.728 L133.76,26 L127.208,26 L125.624,21.356 Z M124.04,16.676 L120.872,7.316 L117.668,16.676 L124.04,16.676 Z"></path>
    </g>
</svg>